<svg width="43" height="43" viewBox="0 0 43 43" fill="none" xmlns="http://www.w3.org/2000/svg">
<path d="M28.0698 14.072L14.0698 28.072" stroke="#AFBDD4" stroke-miterlimit="10"/>
<path d="M4.06982 38.072L1.06982 41.072" stroke="#AFBDD4" stroke-linecap="round" stroke-linejoin="round"/>
<path d="M6.88398 22.5614L3.24674 26.1984C2.84215 26.603 2.84215 27.2589 3.24674 27.6635L14.4808 38.8968C14.8854 39.3014 15.5414 39.3014 15.9459 38.8968L19.5832 35.2598C19.9878 34.8552 19.9878 34.1993 19.5832 33.7948L8.34913 22.5614C7.94454 22.1569 7.28857 22.1569 6.88398 22.5614Z" stroke="#AFBDD4" stroke-miterlimit="10"/>
<path d="M0.802401 32.8728L4.62645 29.049L13.0914 37.5133L9.26732 41.3371C8.8644 41.74 8.20508 41.74 7.80217 41.3371L0.8024 34.3378C0.399484 33.9349 0.399484 33.2756 0.802401 32.8728Z" stroke="#AFBDD4" stroke-miterlimit="10"/>
<path d="M35.2606 19.5821L38.8978 15.9451C39.3024 15.5405 39.3024 14.8846 38.8978 14.4801L27.6637 3.24675C27.2591 2.84218 26.6032 2.84218 26.1986 3.24675L22.5613 6.88375C22.1568 7.28831 22.1568 7.94424 22.5613 8.3488L33.7954 19.5821C34.2 19.9867 34.856 19.9867 35.2606 19.5821Z" stroke="#AFBDD4" stroke-miterlimit="10"/>
<path d="M41.3372 9.26652L37.5132 13.0903L29.0483 4.62596L32.8723 0.802168C33.2752 0.399278 33.9346 0.399278 34.3375 0.802168L41.3372 7.80147C41.7402 8.20436 41.7402 8.86363 41.3372 9.26652Z" stroke="#AFBDD4" stroke-miterlimit="10"/>
<path d="M41.0698 1.07196L38.0698 4.07196" stroke="#AFBDD4" stroke-linecap="round" stroke-linejoin="round"/>
</svg>
