<svg width="43" height="43" viewBox="0 0 43 43" fill="none" xmlns="http://www.w3.org/2000/svg">
<path d="M28.0696 14.0709L14.0696 28.0709" stroke="#407CE2" stroke-miterlimit="10"/>
<path d="M4.06958 38.0709L1.06958 41.0709" stroke="#407CE2" stroke-linecap="round" stroke-linejoin="round"/>
<path d="M6.88398 22.5614L3.24674 26.1984C2.84215 26.6029 2.84215 27.2589 3.24674 27.6634L14.4808 38.8967C14.8854 39.3013 15.5414 39.3013 15.9459 38.8967L19.5832 35.2597C19.9878 34.8552 19.9878 34.1993 19.5832 33.7947L8.34913 22.5614C7.94454 22.1568 7.28857 22.1568 6.88398 22.5614Z" stroke="#407CE2" stroke-miterlimit="10"/>
<path d="M0.802156 32.8727L4.6262 29.0489L13.0911 37.5133L9.26707 41.3371C8.86416 41.7399 8.20484 41.7399 7.80192 41.3371L0.802156 34.3378C0.399239 33.9349 0.39924 33.2756 0.802156 32.8727Z" stroke="#407CE2" stroke-miterlimit="10"/>
<path d="M35.2603 19.5821L38.8976 15.9451C39.3021 15.5405 39.3021 14.8846 38.8976 14.48L27.6635 3.24669C27.2589 2.84212 26.6029 2.84212 26.1983 3.24669L22.5611 6.88369C22.1565 7.28825 22.1565 7.94418 22.5611 8.34874L33.7952 19.5821C34.1997 19.9866 34.8557 19.9866 35.2603 19.5821Z" stroke="#407CE2" stroke-miterlimit="10"/>
<path d="M41.337 9.26646L37.513 13.0903L29.048 4.6259L32.8721 0.802107C33.275 0.399217 33.9343 0.399217 34.3372 0.802107L41.337 7.80141C41.7399 8.2043 41.7399 8.86357 41.337 9.26646Z" stroke="#407CE2" stroke-miterlimit="10"/>
<path d="M41.0696 1.07092L38.0696 4.07092" stroke="#407CE2" stroke-linecap="round" stroke-linejoin="round"/>
</svg>
