<svg width="42" height="42" viewBox="0 0 42 42" fill="none" xmlns="http://www.w3.org/2000/svg">
<path d="M24.6522 38.1064C24.2811 38.6823 23.7483 39.1604 23.1074 39.4928C22.4664 39.8251 21.7397 40 21 40C20.2603 40 19.5336 39.8251 18.8926 39.4928C18.2517 39.1604 17.7189 38.6823 17.3478 38.1064M33.6667 13.402C33.6667 10.378 32.3321 7.47787 29.9567 5.33957C27.5812 3.20128 24.3594 2 21 2C17.6406 2 14.4188 3.20128 12.0433 5.33957C9.66785 7.47787 8.33333 10.378 8.33333 13.402C8.33333 26.7044 2 30.5051 2 30.5051H40C40 30.5051 33.6667 26.7044 33.6667 13.402Z" stroke="#407CE2" stroke-width="4" stroke-linecap="round" stroke-linejoin="round"/>
</svg>
