<svg width="50" height="40" viewBox="0 0 50 40" fill="none" xmlns="http://www.w3.org/2000/svg">
<path d="M17.7096 9.9987H32.293M20.8346 28.332H29.168M25.0013 31.6654V24.9987M31.2513 18.6214C36.1783 20.4939 39.5846 24.5114 39.5846 29.1654V32.4987C39.5846 34.3396 37.7192 35.832 35.418 35.832H14.5846C12.2834 35.832 10.418 34.3396 10.418 32.4987V29.1654C10.418 24.5114 13.8243 20.4939 18.7513 18.6214M25.0013 19.9987C20.9742 19.9987 17.7096 17.387 17.7096 14.1654V6.66536C17.7096 4.82442 19.5751 3.33203 21.8763 3.33203H28.1263C30.4275 3.33203 32.293 4.82442 32.293 6.66536V14.1654C32.293 17.387 29.0284 19.9987 25.0013 19.9987Z" stroke="#407CE2" stroke-width="1.5" stroke-linecap="round" stroke-linejoin="round"/>
</svg>
