<svg width="100" height="100" viewBox="0 0 100 100" fill="none" xmlns="http://www.w3.org/2000/svg">
<path d="M100 50C100 77.6142 77.6142 100 50 100C22.3858 100 0 77.6142 0 50C0 22.3858 22.3858 0 50 0C77.6142 0 100 22.3858 100 50Z" fill="#F74040"/>
<g clip-path="url(#clip0_724_14096)">
<path d="M80.311 51.3013L79.726 54.5294C79.176 57.5557 76.3703 59.6096 73.1709 59.3294L66.7981 58.7696C64.024 58.5247 61.6434 56.5748 60.914 53.9504L58.8872 46.6397C55.9686 45.4727 52.7596 44.9571 49.2614 45.0903C45.8917 45.1914 42.5766 45.9677 39.5123 47.373L38.358 54.2454C37.9186 56.8471 35.7883 58.8061 33.076 59.1007L26.7536 59.7945C23.5971 60.139 20.5534 58.1556 19.6295 55.1547L18.6382 51.9404C17.6531 48.7392 18.4771 45.352 20.8044 43.0536C26.2983 37.6203 35.5077 34.8434 48.4378 34.7126C61.3875 34.5823 70.9376 37.1834 77.0766 42.5131C79.6604 44.7553 80.8927 48.0978 80.311 51.3013Z" fill="white"/>
</g>
<defs>
<clipPath id="clip0_724_14096">
<rect width="62.4598" height="62.4598" fill="white" transform="translate(91.6152 36.4668) rotate(118)"/>
</clipPath>
</defs>
</svg>
