<svg width="48" height="39" viewBox="0 0 48 39" fill="none" xmlns="http://www.w3.org/2000/svg">
<g opacity="0.7" clip-path="url(#clip0_809_13807)">
<path d="M35.88 29.1525C32.4612 31.2699 28.2982 32.4429 24 32.5C10 32.5 2 19.5 2 19.5C4.48778 15.7331 7.93827 12.442 12.12 9.8475M19.8 6.89C21.1767 6.62818 22.5861 6.4973 24 6.5C38 6.5 46 19.5 46 19.5C44.786 21.3454 43.3381 23.0827 41.68 24.6838M28.24 22.945C27.6907 23.424 27.0283 23.8081 26.2923 24.0746C25.5563 24.341 24.7618 24.4843 23.9562 24.4958C23.1506 24.5074 22.3503 24.387 21.6032 24.1418C20.8561 23.8966 20.1774 23.5317 19.6077 23.0687C19.0379 22.6058 18.5888 22.0544 18.287 21.4474C17.9853 20.8404 17.8371 20.1902 17.8513 19.5356C17.8655 18.881 18.0418 18.2355 18.3698 17.6375C18.6977 17.0395 19.1705 16.5013 19.76 16.055M2 1.625L46 37.375" stroke="#AFBDD4" stroke-width="3" stroke-linecap="round" stroke-linejoin="round"/>
</g>
<defs>
<clipPath id="clip0_809_13807">
<rect width="48" height="39" fill="white"/>
</clipPath>
</defs>
</svg>
