<svg width="20" height="20" viewBox="0 0 20 20" fill="none" xmlns="http://www.w3.org/2000/svg">
<path d="M20.0002 10.225C20.0002 9.56665 19.9406 8.94165 19.8384 8.33331H10.2173V12.0916H15.726C15.4791 13.325 14.7554 14.3666 13.6826 15.075V17.575H16.9691C18.8933 15.8333 20.0002 13.2666 20.0002 10.225Z" fill="#4285F4"/>
<path d="M10.2172 20C12.9758 20 15.2831 19.1 16.969 17.575L13.6825 15.075C12.7629 15.675 11.5965 16.0417 10.2172 16.0417C7.5522 16.0417 5.29592 14.2833 4.48707 11.9083H1.09839V14.4833C2.7757 17.75 6.22398 20 10.2172 20Z" fill="#34A853"/>
<path d="M4.48702 11.9083C4.27416 11.3083 4.16347 10.6667 4.16347 9.99999C4.16347 9.33333 4.28267 8.69166 4.48702 8.09166V5.51666H1.09834C0.400169 6.86666 0 8.38333 0 9.99999C0 11.6167 0.400169 13.1333 1.09834 14.4833L4.48702 11.9083Z" fill="#FBBC05"/>
<path d="M10.2172 3.95833C11.7242 3.95833 13.0694 4.46667 14.1337 5.45834L17.0456 2.60833C15.2831 0.991668 12.9758 0 10.2172 0C6.22397 0 2.7757 2.25 1.09839 5.51667L4.48707 8.09167C5.29592 5.71667 7.5522 3.95833 10.2172 3.95833Z" fill="#EA4335"/>
</svg>
