<svg width="21" height="20" viewBox="0 0 21 20" fill="none" xmlns="http://www.w3.org/2000/svg">
<path d="M10.5 9.99935C10.9812 9.99935 11.3932 9.83615 11.7359 9.50977C12.0786 9.18338 12.25 8.79102 12.25 8.33268C12.25 7.87435 12.0786 7.48199 11.7359 7.1556C11.3932 6.82921 10.9812 6.66602 10.5 6.66602C10.0188 6.66602 9.60677 6.82921 9.26406 7.1556C8.92135 7.48199 8.75 7.87435 8.75 8.33268C8.75 8.79102 8.92135 9.18338 9.26406 9.50977C9.60677 9.83615 10.0188 9.99935 10.5 9.99935ZM10.5 18.3327C8.15208 16.4299 6.39844 14.6625 5.23906 13.0306C4.07969 11.3987 3.5 9.88824 3.5 8.49935C3.5 6.41602 4.20365 4.75629 5.61094 3.52018C7.01823 2.28407 8.64792 1.66602 10.5 1.66602C12.3521 1.66602 13.9818 2.28407 15.3891 3.52018C16.7964 4.75629 17.5 6.41602 17.5 8.49935C17.5 9.88824 16.9203 11.3987 15.7609 13.0306C14.6016 14.6625 12.8479 16.4299 10.5 18.3327Z" fill="#407CE2"/>
</svg>
