<svg width="55" height="47" viewBox="0 0 55 47" fill="none" xmlns="http://www.w3.org/2000/svg">
<path d="M16.0417 21.5417V13.7083C16.0417 11.1114 17.2489 8.62086 19.3977 6.78457C21.5466 4.94828 24.4611 3.91666 27.5 3.91666C30.5389 3.91666 33.4534 4.94828 35.6023 6.78457C37.7511 8.62086 38.9583 11.1114 38.9583 13.7083V21.5417M11.4583 21.5417H43.5417C46.073 21.5417 48.125 23.2952 48.125 25.4583V39.1667C48.125 41.3298 46.073 43.0833 43.5417 43.0833H11.4583C8.92703 43.0833 6.875 41.3298 6.875 39.1667V25.4583C6.875 23.2952 8.92703 21.5417 11.4583 21.5417Z" stroke="#AFBDD4" stroke-width="4" stroke-linecap="round" stroke-linejoin="round"/>
</svg>
