<svg width="36" height="28" viewBox="0 0 36 28" fill="none" xmlns="http://www.w3.org/2000/svg">
<path d="M10.0465 9.20591C10.0465 8.64099 10.6087 8.18303 11.3023 8.18303H24.6976C25.3912 8.18303 25.9535 8.64099 25.9535 9.20591C25.9535 9.77083 25.3912 10.2288 24.6976 10.2288H11.3023C10.6087 10.2288 10.0465 9.77083 10.0465 9.20591Z" fill="#407CE2"/>
<path d="M10.0465 15.3432C10.0465 14.7783 10.6087 14.3203 11.3023 14.3203H24.6976C25.3912 14.3203 25.9535 14.7783 25.9535 15.3432C25.9535 15.9081 25.3912 16.3661 24.6976 16.3661H11.3023C10.6087 16.3661 10.0465 15.9081 10.0465 15.3432Z" fill="#407CE2"/>
<path fill-rule="evenodd" clip-rule="evenodd" d="M14.595 1.0262e-07H21.405C23.7018 -6.23809e-06 25.5026 -1.11978e-05 26.9498 0.0963032C28.4236 0.194377 29.641 0.397393 30.743 0.854735C32.5546 1.60658 34.0275 2.80626 34.9506 4.28184C35.5121 5.17943 35.7613 6.17109 35.8817 7.37146C36 8.55028 36 10.017 36 11.8878V13.5487C36 13.6163 36 13.683 36 13.749C36.0003 15.8611 36.0006 17.1494 35.611 18.2316C34.6883 20.7946 32.2277 22.7988 29.0811 23.5503C27.7524 23.8677 26.1707 23.8675 23.5776 23.8672C23.4966 23.8672 23.4147 23.8672 23.3317 23.8672H22.4127L22.3118 23.8673C20.8597 23.8749 19.4453 24.2441 18.2583 24.9254L18.176 24.9731L13.8046 27.5164C11.2854 28.982 7.97505 26.8654 9.1248 24.5241C9.27934 24.2095 8.99481 23.8672 8.57873 23.8672H7.57114C3.38971 23.8672 3.25595e-07 21.1062 3.25595e-07 17.7004L1.25989e-07 11.8878C-7.65864e-06 10.017 -1.37479e-05 8.55029 0.118234 7.37146C0.238642 6.17109 0.487889 5.17943 1.04938 4.28184C1.97244 2.80626 3.44532 1.60658 5.25692 0.854735C6.35891 0.397393 7.57639 0.194377 9.05011 0.0963033C10.4974 -1.11978e-05 12.2981 -6.23809e-06 14.595 1.0262e-07ZM9.25464 2.13527C7.93624 2.223 7.08608 2.39161 6.39718 2.67752C5.05816 3.23323 3.96951 4.11995 3.28725 5.2106C2.93624 5.77172 2.72923 6.46419 2.62152 7.53805C2.5126 8.62385 2.51163 10.0072 2.51163 11.9336V17.7004C2.51163 19.9764 4.77685 21.8214 7.57114 21.8214H8.57873C10.7717 21.8214 12.2712 23.6255 11.4568 25.2839C11.2386 25.7281 11.8667 26.1297 12.3447 25.8517L16.7162 23.3084L16.8115 23.2531C18.4175 22.3313 20.3312 21.8318 22.2957 21.8216L22.4127 21.8214H23.3317C26.2484 21.8214 27.4375 21.811 28.3744 21.5872C30.7001 21.0318 32.5189 19.5504 33.2008 17.656C33.4755 16.8929 33.4883 15.9244 33.4883 13.5487V11.9336C33.4883 10.0072 33.4874 8.62385 33.3784 7.53805C33.2707 6.46419 33.0637 5.77172 32.7127 5.2106C32.0304 4.11995 30.9418 3.23323 29.6028 2.67752C28.9139 2.39161 28.0637 2.223 26.7453 2.13527C25.4123 2.04655 23.7139 2.04576 21.3488 2.04576H14.6511C12.286 2.04576 10.5877 2.04655 9.25464 2.13527Z" fill="#407CE2"/>
</svg>
