<svg width="80" height="80" viewBox="0 0 80 80" fill="none" xmlns="http://www.w3.org/2000/svg">
<path d="M39.9993 53.3324C47.3527 53.3324 53.3327 47.3524 53.3327 39.999V19.999C53.3327 12.609 47.3827 6.5957 40.0693 6.5957C39.8347 6.59711 39.601 6.62507 39.3727 6.67904C35.9502 6.84497 32.7224 8.32022 30.3573 10.7995C27.9921 13.2789 26.6705 16.5725 26.666 19.999V39.999C26.666 47.3524 32.646 53.3324 39.9993 53.3324Z" fill="white"/>
<path d="M36.6673 66.4367V73.3333H43.334V66.4367C56.464 64.7867 66.6673 53.5767 66.6673 40H60.0006C60.0006 51.03 51.0307 60 40.0007 60C28.9707 60 20.0007 51.03 20.0007 40H13.334C13.334 53.5733 23.5373 64.7867 36.6673 66.4367Z" fill="white"/>
</svg>
