<svg width="80" height="80" viewBox="0 0 80 80" fill="none" xmlns="http://www.w3.org/2000/svg">
<path d="M27.5 17.5C29.4891 17.5 31.3968 18.2902 32.8033 19.6967C34.2098 21.1032 35 23.0109 35 25V55C35 56.9891 34.2098 58.8968 32.8033 60.3033C31.3968 61.7098 29.4891 62.5 27.5 62.5C25.5109 62.5 23.6032 61.7098 22.1967 60.3033C20.7902 58.8968 20 56.9891 20 55V25C20 23.0109 20.7902 21.1032 22.1967 19.6967C23.6032 18.2902 25.5109 17.5 27.5 17.5ZM52.5 17.5C54.4891 17.5 56.3968 18.2902 57.8033 19.6967C59.2098 21.1032 60 23.0109 60 25V55C60 56.9891 59.2098 58.8968 57.8033 60.3033C56.3968 61.7098 54.4891 62.5 52.5 62.5C50.5109 62.5 48.6032 61.7098 47.1967 60.3033C45.7902 58.8968 45 56.9891 45 55V25C45 23.0109 45.7902 21.1032 47.1967 19.6967C48.6032 18.2902 50.5109 17.5 52.5 17.5Z" fill="white"/>
</svg>
