<svg width="34" height="34" viewBox="0 0 34 34" fill="none" xmlns="http://www.w3.org/2000/svg">
<path d="M31.1668 23.9701V28.2201C31.1684 28.6146 31.0876 29.0051 30.9295 29.3666C30.7714 29.7281 30.5396 30.0526 30.2489 30.3194C29.9582 30.5861 29.6149 30.7892 29.2412 30.9156C28.8674 31.042 28.4714 31.0889 28.0784 31.0534C23.7191 30.5797 19.5317 29.0901 15.8526 26.7042C12.4297 24.5292 9.52767 21.6271 7.35261 18.2042C4.95841 14.5084 3.46845 10.3006 3.00344 5.92172C2.96804 5.52997 3.0146 5.13513 3.14015 4.76236C3.2657 4.38958 3.4675 4.04703 3.73269 3.75652C3.99789 3.46601 4.32067 3.23389 4.68048 3.07496C5.04029 2.91603 5.42926 2.83376 5.82261 2.83339H10.0726C10.7601 2.82662 11.4266 3.07008 11.9479 3.51839C12.4692 3.9667 12.8097 4.58927 12.9059 5.27006C13.0853 6.63015 13.418 7.96559 13.8976 9.25089C14.0882 9.75795 14.1295 10.309 14.0165 10.8388C13.9035 11.3686 13.641 11.8549 13.2601 12.2401L11.4609 14.0392C13.4776 17.5859 16.4143 20.5225 19.9609 22.5392L21.7601 20.7401C22.1453 20.3592 22.6316 20.0967 23.1614 19.9837C23.6911 19.8707 24.2422 19.912 24.7493 20.1026C26.0346 20.5822 27.37 20.9148 28.7301 21.0942C29.4183 21.1913 30.0468 21.5379 30.496 22.0682C30.9453 22.5984 31.184 23.2753 31.1668 23.9701Z" stroke="white" stroke-width="1.6" stroke-linecap="round" stroke-linejoin="round"/>
</svg>
