<svg width="78" height="71" viewBox="0 0 78 71" fill="none" xmlns="http://www.w3.org/2000/svg">
<path d="M43.7112 0.293705C42.8962 -0.140045 41.9075 -0.0912951 41.14 0.426205L16.055 20.1225L7.725 20.1287C3.46625 20.1287 0 23.1488 0 26.8787L0.13375 43.3738C0.13375 47.0875 3.59875 50.11 7.85742 50.11L16.1849 50.1151L41.1374 69.8614C41.5506 70.1402 42.0378 70.2891 42.5362 70.2889C42.9387 70.2889 43.3425 70.1913 43.7088 69.9963C44.11 69.784 44.4458 69.4662 44.68 69.0772C44.9141 68.6882 45.0377 68.2428 45.0375 67.7888V2.50121C45.0373 2.04757 44.9138 1.60252 44.6802 1.21366C44.4466 0.824811 44.1116 0.506791 43.7112 0.293627V0.293705ZM40.0375 63.085L18.3501 45.5439C17.9373 45.2652 17.4506 45.1163 16.9525 45.1163L7.86 45.1113C6.255 45.1113 5.135 44.1963 5.135 43.3563L5.00133 26.86C5.00133 26.0413 6.12133 25.1288 7.72758 25.1288L16.8213 25.1225C17.3183 25.1222 17.804 24.9737 18.2162 24.6962L40.0375 7.1962V63.085ZM65.1151 35.5751C65.1151 28.9339 60.55 23.3538 54.2625 22.3038C52.8787 22.075 51.6113 22.9963 51.3838 24.3589C51.1563 25.7201 52.0775 27.0089 53.4375 27.2364C57.3688 27.8926 60.1151 31.3226 60.1151 35.5764C60.1151 39.6264 57.2738 43.1301 53.3576 43.9114C52.0026 44.1802 51.1238 45.4964 51.3951 46.8514C51.6313 48.0401 52.6738 48.8627 53.8438 48.8627C54.0088 48.863 54.1734 48.8467 54.3351 48.8139C60.5813 47.5689 65.1151 42.0002 65.1151 35.5752V35.5751ZM61.7975 12.6375C60.5062 12.1563 59.0623 12.8126 58.5824 14.1063C58.0986 15.4 58.7561 16.84 60.0498 17.3225C67.5911 20.1362 72.6573 27.4712 72.6573 35.5749C72.6573 43.6825 67.5911 51.0313 60.0548 53.8563C58.7611 54.3425 58.1061 55.7825 58.5899 57.0737C58.9662 58.08 59.9188 58.6975 60.9313 58.6975C61.2305 58.6975 61.5272 58.6437 61.8074 58.5387C71.2874 54.9837 77.6574 45.755 77.6574 35.575C77.6574 25.395 71.2824 16.1775 61.7975 12.6375Z" fill="white"/>
</svg>
